<?xml version="1.0" encoding="utf-8"?><svg xmlns="http://www.w3.org/2000/svg" xmlns:xlink="http://www.w3.org/1999/xlink" width="1920" height="979" preserveAspectRatio="xMidYMid" viewBox="0 0 1920 979" style="z-index:1;margin-right:-2px;display:block;background-repeat-y:initial;background-repeat-x:initial;background-color:rgb(255, 255, 255);animation-play-state:paused" ><g transform="translate(960,489.5) scale(1,1) translate(-960,-489.5)" style="transform:matrix(1, 0, 0, 1, 0, 0);animation-play-state:paused" ><linearGradient id="lg-0.7859187227342155" x1="0" x2="1" y1="0" y2="0" style="animation-play-state:paused" ><stop stop-color="#ff00ff" offset="0" style="animation-play-state:paused" ></stop>

  
<stop stop-color="#00ffff" offset="1" style="animation-play-state:paused" ></stop></linearGradient>
<path d="M 0 0 L 0 876.451 Q 192 918.407 384 877.965 T 768 632.632 T 1152 657.934 T 1536 440.335 T 1920 429.932 L 1920 0 Z" fill="url(#lg-0.7859187227342155)" opacity="0.4" style="opacity:0.4;animation-play-state:paused" ></path>
<path d="M 0 0 L 0 929.206 Q 192 848.558 384 818.208 T 768 721.277 T 1152 545.624 T 1536 575.859 T 1920 449.733 L 1920 0 Z" fill="url(#lg-0.7859187227342155)" opacity="0.4" style="opacity:0.4;animation-play-state:paused" ></path>
<path d="M 0 0 L 0 896.61 Q 192 783.113 384 759.555 T 768 742.815 T 1152 580.244 T 1536 560.516 T 1920 416.045 L 1920 0 Z" fill="url(#lg-0.7859187227342155)" opacity="0.4" style="opacity:0.4;animation-play-state:paused" ></path>
<path d="M 0 0 L 0 889.671 Q 192 789.396 384 752.916 T 768 753.09 T 1152 623.543 T 1536 528.061 T 1920 463.945 L 1920 0 Z" fill="url(#lg-0.7859187227342155)" opacity="0.4" style="opacity:0.4;animation-play-state:paused" ></path>
<path d="M 0 0 L 0 802.289 Q 192 788.057 384 763.583 T 768 718.615 T 1152 522.52 T 1536 532.517 T 1920 375.356 L 1920 0 Z" fill="url(#lg-0.7859187227342155)" opacity="0.4" style="opacity:0.4;animation-play-state:paused" ></path></g></svg>